<svg fill="none" height="20" viewBox="0 0 21 20" width="21" xmlns="http://www.w3.org/2000/svg" xmlns:xlink="http://www.w3.org/1999/xlink"><clipPath id="a"><path d="m.5 4c0-2.20914 1.79086-4 4-4h12c2.2091 0 4 1.79086 4 4v12c0 2.2091-1.7909 4-4 4h-12c-2.20914 0-4-1.7909-4-4z"/></clipPath><g clip-path="url(#a)"><path d="m.5 4c0-2.20914 1.79086-4 4-4h12c2.2091 0 4 1.79086 4 4v12c0 2.2091-1.7909 4-4 4h-12c-2.20914 0-4-1.7909-4-4z" fill="#fff"/><g fill="#000"><path d="m4.21635 11.8243c.22656 0 .42538-.0694.59646-.2081.17339-.141.26008-.3133.26008-.5167h.6138l.00694.0208c.01156.3237-.13293.6115-.43348.8635-.29823.2497-.64616.3745-1.0438.3745-.5456 0-.96289-.178-1.25187-.534-.28667-.3561-.43001-.8034-.43001-1.3421v-.1456c0-.53405.14449-.97908.43347-1.33511.28899-.35834.70512-.53751 1.24841-.53751.30054 0 .56987.04971.80799.14912.24044.09941.43926.23581.59647.4092l.03121.83227h-.54445l-.14911-.58953c-.08092-.0786-.18495-.14218-.3121-.19073-.12716-.04855-.27049-.07282-.43001-.07282-.35834 0-.61496.12946-.76985.38839-.15258.25662-.22888.57219-.22888.94672v.1456c0 .3838.0763.704.22888.9606.15258.2543.4092.3815.76985.3815z"/><path d="m6.26581 7.31614v-.44041h1.24841v4.87567l.56525.0971v.437h-1.81366v-.437l.56526-.0971v-4.33816z"/><path d="m8.59964 11.8485.56525-.0971v-2.68056l-.56525-.09709v-.44041h1.2484v3.21806l.56526.0971v.437h-1.81366zm1.2484-4.27574h-.68315v-.69703h.68315z"/><path d="m12.6223 11.8243c.2265 0 .4254-.0694.5964-.2081.1734-.141.2601-.3133.2601-.5167h.6138l.007.0208c.0115.3237-.133.6115-.4335.8635-.2982.2497-.6462.3745-1.0438.3745-.5456 0-.9629-.178-1.2519-.534-.2867-.3561-.43-.8034-.43-1.3421v-.1456c0-.53405.1445-.97908.4335-1.33511.289-.35834.7051-.53751 1.2484-.53751.3005 0 .5699.04971.808.14912.2404.09941.4392.23581.5964.4092l.0312.83227h-.5444l-.1491-.58953c-.0809-.0786-.185-.14218-.3121-.19073-.1272-.04855-.2705-.07282-.43-.07282-.3584 0-.615.12946-.7699.38839-.1526.25662-.2288.57219-.2288.94672v.1456c0 .3838.0762.704.2288.9606.1526.2543.4092.3815.7699.3815z"/><path d="m14.6717 7.31614v-.44041h1.2484v3.13487h.437l.8011-.99177-.3434-.04508v-.44041h1.571v.44041l-.4578.09016-.9883 1.17909 1.2033 1.5223.4265.0832v.437h-1.557v-.437l.3503-.045-.9953-1.2484h-.4474v1.1963l.5653.0971v.437h-1.8137v-.437l.5653-.0971v-4.33816z"/></g></g></svg>