<svg fill="none" height="20" viewBox="0 0 21 20" width="21" xmlns="http://www.w3.org/2000/svg"><path clip-rule="evenodd" d="m8.49999 6.98096c0 .26521-.10537.51955-.2929.70709-.18754.18754-.44188.29291-.7071.29291h-4c-.26473-.00158-.51815-.10748-.70535-.29468s-.29307-.44059-.29465-.70532v-4c0-.26522.10537-.51962.29291-.70716.18754-.18753.44188-.29284.70709-.29284.26522 0 .51956.10531.7071.29284.18753.18754.2929.44194.2929.70716v1.71795c1.20474-1.36331 2.83909-2.27412 4.63227-2.5816 1.79314-.30748 3.63754.00685 5.22764.89093 1.5902.88408 2.8305 2.28481 3.5157 3.97021.6852 1.68541.774 3.55435.2518 5.29715s-1.6242 3.2548-3.1233 4.2857c-1.499 1.031-3.3053 1.5189-5.11959 1.3829-1.81425-.1361-3.52761-.8878-4.85623-2.1307s-2.19275-2.9024-2.44928-4.7036c-.01953-.1422-.00822-.287.03321-.4245s.11199-.2644.20688-.3722c.09488-.1078.21185-.1939.34298-.2525.13113-.0585.27334-.0881.41693-.08676.23946.00137.47046.08866.65103.24586.18058.1573.29871.3741.33295.6111.19019 1.3566.83768 2.6077 1.83536 3.5464.99768.9386 2.28582 1.5087 3.65146 1.6159 1.3656.1073 2.727-.2548 3.8589-1.0263 1.132-.7714 1.9668-1.9061 2.3664-3.2164.3996-1.3102.34-2.71761-.1688-3.98945s-1.4365-2.33198-2.6295-3.00507c-1.1931-.67309-2.5801-.91884-3.93185-.69665-1.35171.22218-2.58712.89899-3.50196 1.91858h1.457c.13158-.00001.26187.02597.3834.07641.12152.05044.23187.12442.32476.21759.0929.09318.16651.20377.21659.32544s.07565.25203.07525.38361z" fill-rule="evenodd"/></svg>