<svg fill="none" height="20" viewBox="0 0 21 20" width="21" xmlns="http://www.w3.org/2000/svg"><path clip-rule="evenodd" d="m18.48 9.39001c-.0469-.54522-.1474-1.0845-.3-1.61002-.4692-1.62012-1.4384-3.05049-2.7692-4.08676s-2.9551-1.6254-4.6408-1.68323c-.1798-.01333-.3602-.01333-.54 0-1.68568.05783-3.30999.64696-4.6408 1.68323-1.3308 1.03627-2.30002 2.46664-2.76919 4.08676-.15259.52552-.2531 1.0648-.30002 1.61002-.01.19999-.01999.39998-.01999.60998.00141 2.07401.80825 4.06651 2.25037 5.55711 1.44211 1.4906 3.40678 2.3629 5.47963 2.4329.1798.0133.3602.0133.54 0 2.0728-.07 4.0375-.9423 5.4796-2.4329s2.249-3.4831 2.2504-5.55711c0-.21-.01-.40999-.02-.60998zm-3.24-3.05002c.5692.71829.9599 1.56137 1.14 2.45999.02.11.04.23002.05.34003-.5774.37055-1.2443.57786-1.93.59997-.01-.5-.03-1-.08-1.5-.0555-.69632-.1591-1.38794-.31-2.06998-.0848-.40753-.1984-.80855-.34-1.20001.568.36511 1.0658.82912 1.47 1.37zm-3.25-.31c.1975.65902.3315 1.33543.4 2.01999.0736.62731.1103 1.2584.11 1.89001-.63.04-1.3.06-2 .06s-1.37-.02-2-.06c-.0003-.63161.03641-1.2627.10999-1.89001.06853-.68456.2025-1.36097.40002-2.01999.36-1.25.89999-2.03 1.48999-2.03s1.13.78 1.49 2.03zm-4.75999-1.06c-.14157.39146-.25519.79248-.34 1.20001-.15089.68204-.2545 1.37366-.31002 2.06998-.05.5-.06999 1-.07999 1.5-.6857-.02211-1.35262-.22942-1.92999-.59997.01-.11001.02999-.23003.04999-.34003.18009-.89862.5708-1.7417 1.14001-2.45999.40416-.54088.90204-1.00489 1.47-1.37zm-2.56 6.42001c.62266.1932 1.26214.3271 1.90998.4.08103 1.1028.2994 2.1912.65002 3.24-1.29144-.8372-2.20882-2.1416-2.56-3.64zm3.93998.57c.58.03 1.20001.04 1.89001.04s1.31-.01 1.89-.04c-.27 2.35-1.02 4.04-1.89 4.04s-1.62001-1.69-1.89001-4.04zm5.16001 3.07c.3506-1.0488.569-2.1372.65-3.24.6479-.0729 1.2873-.2068 1.91-.4-.3512 1.4984-1.2686 2.8028-2.56 3.64z" fill-rule="evenodd"/></svg>