<svg fill="none" height="20" viewBox="0 0 21 20" width="21" xmlns="http://www.w3.org/2000/svg"><path clip-rule="evenodd" d="m17.486 7.46295-5.89-5c-.3507-.29882-.7963-.46295-1.257-.46295-.46073 0-.90636.16413-1.25701.46295l-5.89102 5c-.31116.26663-.53405.62142-.63922 1.01746s-.08766.81469.05023 1.20056c.15565.44093.46153.81293.86401 1.05093v5.268c-.00237.2603.04654.5185.14395.7599.09742.2414.24143.4612.4238.6469.18238.1858.39956.3337.63913.4355s.49683.1554.75711.1577h9.81702c.2603-.0023.5175-.0559.7571-.1577s.4567-.2497.6391-.4355c.1824-.1857.3264-.4055.4238-.6469.0975-.2414.1464-.4996.144-.7599v-5.268c.4025-.238.7083-.61.864-1.05093.1379-.38587.1554-.80452.0502-1.20056s-.3281-.75083-.6392-1.01746zm-8.11101 8.53695v-4h1.92701v4zm5.87201-6.99996v6.99996h-1.978v-4c.0023-.2602-.0466-.5185-.144-.7598-.0974-.2414-.2414-.4612-.4238-.647-.1824-.1857-.3995-.3337-.6391-.4354-.2396-.1018-.4968-.1554-.7571-.15776h-1.92702c-.26028.00236-.51754.05596-.75711.15776-.23957.1017-.45675.2497-.63913.4354-.18238.1858-.32638.4056-.4238.647-.09742.2413-.14632.4996-.14395.7598v4h-1.98102v-6.99996h-.98199l5.89102-5 5.89 5h-.982z" fill-rule="evenodd"/></svg>