<svg fill="none" height="20" viewBox="0 0 20 20" width="20" xmlns="http://www.w3.org/2000/svg" xmlns:xlink="http://www.w3.org/1999/xlink"><clipPath id="a"><path d="m2 2h16v16h-16z"/></clipPath><g clip-path="url(#a)"><path clip-rule="evenodd" d="m16 7h-1v2h1v7l-2.41-2h-5.59v-2h-.50999l-1.49001 1.24v.76c.00125.1447.01801.2889.05.43.09787.4445.34443.8424.69898 1.1278.35454.2855.79585.4415 1.25102.4422h4.87l1.85 1.54c.3611.296.8131.4584 1.28.46.294.0015.5846-.0634.85-.19.3438-.1614.6344-.4173.8381-.7379.2036-.3205.3118-.6924.3119-1.0721v-7c-.0016-.52995-.2128-1.03775-.5875-1.41248-.3748-.37473-.8826-.58594-1.4125-.58752zm-8.87 4h4.87c.5299-.0016 1.0377-.2128 1.4125-.5875.3747-.3748.5859-.88255.5875-1.4125v-5c-.0016-.52995-.2128-1.03775-.5875-1.41248-.3748-.37473-.8826-.58594-1.4125-.58752h-8c-.52995.00158-1.03773.21279-1.41246.58752s-.58596.88253-.58754 1.41248v7c.00007.3797.10826.7516.3119 1.0721.20365.3206.49435.5765.83809.7379.2654.1266.55598.1915.85001.19.46687-.0016.91892-.164 1.28-.46l.72-.6zm-3.13 0v-7h8v5h-5.59l-.41.34z" fill-rule="evenodd"/></g></svg>