<svg fill="none" height="20" viewBox="0 0 21 20" width="21" xmlns="http://www.w3.org/2000/svg"><path clip-rule="evenodd" d="m9.5 12c-.26519-.0001-.51951-.1054-.707-.293l-2-2c-.18216-.1886-.28295-.4412-.28067-.7034s.10744-.51302.29285-.69842c.1854-.18541.43622-.29057.69842-.29285s.5148.09851.7034.28067l1.293 1.293 3.293-3.293c.1886-.18216.4412-.28295.7034-.28067s.513.10744.6984.29285c.1854.1854.2906.43622.2929.69842.0022.2622-.0985.5148-.2807.7034l-4 4c-.1875.1876-.44181.2929-.707.293zm7-10h-12c-.53043 0-1.03914.21071-1.41422.58578-.37507.37508-.58578.88379-.58578 1.41422v12c.00008.3523.09324.6983.27002 1.0031.17678.3047.43094.5574.73672.7323.30579.175.65237.2661 1.00467.2641.35231-.002.69782-.0971 1.00159-.2755l2.93601-1.724h8.05099c.5304 0 1.0391-.2107 1.4142-.5858s.5858-.8838.5858-1.4142v-10c0-.53043-.2107-1.03914-.5858-1.41422-.3751-.37507-.8838-.58578-1.4142-.58578zm0 12h-8.59399l-3.40601 2v-12h12z" fill-rule="evenodd"/></svg>