<svg fill="none" height="20" viewBox="0 0 20 20" width="20" xmlns="http://www.w3.org/2000/svg"><path clip-rule="evenodd" d="m3.85937 8.04357h7.00003v-2.94199l5 4.90002-5 4.9v-2.942h-7.00003v-3.92302zm-2-.00699v3.92302c.00249.2601.05618.5172.15804.7566s.24987.4564.43559.6386.40552.326.64682.4233c.24131.0972.4994.146.75955.1435h5v.98c.00187.3908.12042.7722.34046 1.0952s.53153.573.89457.7178c.3653.1484.7659.1871 1.1529.1115.387-.0757.7435-.2625 1.0261-.5375l5-4.9c.1855-.1803.3329-.3959.4336-.6341.1007-.2383.1526-.4943.1526-.7529 0-.25867-.0519-.51469-.1526-.75292-.1007-.23824-.2481-.45385-.4336-.6341l-5-4.89999c-.2827-.27489-.6393-.46148-1.0262-.53696-.387-.07548-.7876-.03659-1.1528.11194-.36297.14464-.67442.39441-.89446.71725-.22005.32285-.33864.70407-.34057 1.09476v.98099h-5c-.52522-.00507-1.03097.19867-1.40602.56641-.37505.36773-.5887.86936-.59398 1.39459z" fill-rule="evenodd"/></svg>