<svg fill="none" height="20" viewBox="0 0 21 20" width="21" xmlns="http://www.w3.org/2000/svg"><path clip-rule="evenodd" d="m16.4999 9.17101c.0057-1.4352-.4912-2.82711-1.4045-3.93422-.9133-1.10712-2.1854-1.85957-3.5955-2.12679v-.11c0-.26522-.1053-.51957-.2929-.70711-.1875-.18753-.4419-.29289-.7071-.29289s-.51953.10536-.70707.29289c-.18753.18754-.2929.44189-.2929.70711v.09c-1.39654.23727-2.66427.96053-3.5792 2.04197-.91493 1.08145-1.41817 2.45148-1.4208 3.86803v.17101c-.66762.2356-1.23041.69973-1.58881 1.31029-.3584.6105-.48934 1.3282-.36963 2.026.11971.6977.48234 1.3307 1.02374 1.7869.54141.4562 1.22672.7062 1.9347.7058h2c0 .7956.31608 1.5587.87869 2.1213s1.32566.8787 2.12128.8787c.7957 0 1.5587-.3161 2.1213-.8787s.8787-1.3257.8787-2.1213h2c.708.0004 1.3933-.2496 1.9347-.7058s.9041-1.0892 1.0238-1.7869c.1197-.6978-.0113-1.4155-.3697-2.026-.3584-.61056-.9212-1.07469-1.5888-1.31029zm-6 6.82899c-.2652 0-.51953-.1054-.70707-.2929-.18753-.1875-.2929-.4419-.2929-.7071h1.99997c0 .2652-.1053.5196-.2929.7071-.1875.1875-.4419.2929-.7071.2929zm5-3h-9.99997c-.26522 0-.51956-.1054-.7071-.2929-.18753-.1875-.2929-.4419-.2929-.7071s.10537-.5196.2929-.7071c.18754-.1875.44188-.2929.7071-.2929h1v-2c0-1.06087.42142-2.07828 1.17157-2.82843.75014-.75015 1.76756-1.17157 2.8284-1.17157.13 0 .261.006.393.019.9926.08621 1.9158.54438 2.5847 1.28267.669.73829 1.0341 1.70214 1.0223 2.69833v2h1c.2652 0 .5196.1054.7071.2929.1876.1875.2929.4419.2929.7071s-.1053.5196-.2929.7071c-.1875.1875-.4419.2929-.7071.2929z" fill-rule="evenodd"/></svg>