<svg fill="none" height="512" viewBox="0 0 512 512" width="512" xmlns="http://www.w3.org/2000/svg"><path d="m75.913 151.826c41.926 0 75.913-33.987 75.913-75.913 0-41.9256-33.987-75.913-75.913-75.913-41.9256 0-75.913 33.9874-75.913 75.913 0 41.926 33.9874 75.913 75.913 75.913z" fill="#fbf1cf"/><path d="m.0279541 62.694c5.2789959-30.048 28.2160459-53.99401 57.7260459-60.75601 1.665 4.827 2.581 10.00201 2.581 15.39501 0 26.076-21.139 47.214-47.215 47.214-4.54403.001-8.93305-.654-13.0920459-1.853z" fill="#f5e2a2"/><path d="m102.037 146.759c-8.4649 3.261-17.6529 5.066-27.2679 5.066-24.068 0-45.504-11.213-59.412-28.686 8.432-12.879 22.978-21.393 39.521-21.393 25.338 0 46.0089 19.96 47.1589 45.013z" fill="#f5e2a2"/><path d="m129.471 23.3069c12.897 13.408 20.908 31.535 21.184 51.542-5.186 4.553-11.979 7.319-19.422 7.319-16.27 0-29.459-13.189-29.459-29.459.001-15.677 12.249-28.489 27.697-29.402z" fill="#f5e2a2"/><path d="m255.797 486.17c127.231 0 230.373-103.142 230.373-230.373 0-127.232-103.142-230.3734-230.373-230.3734-127.232 0-230.3734 103.1414-230.3734 230.3734 0 127.231 103.1414 230.373 230.3734 230.373z" fill="#7ca1dc"/><g fill="#8de1ce"><path d="m31.1697 204.577c17.259-17.139 24.728-20.484 35.62-15.91 14.133 5.934 16.732 26.577 51.4093 16.577 34.676-10 33.252-51.195 21.185-72.016-12.354-21.318-4.212-43.876-6.512-72.289-50.6983 32.064-88.0173 83.358-101.7023 143.638z"/><path d="m478.906 197.842c-14.495-55.939-49.482-103.617-96.466-134.572-8.651 17.535-21.189 32.815-50.972 30.956-15.816-.987-48.824 9.494-48.824 31.807s10.921 53.149 47.539 49.295 51.868-21.842 70.024-5.139c17.33 15.943 29.034 46.809 78.699 27.653z"/><path d="m161.226 363.322c-1.12-16.997-14.776-52.147-52.036-56.644-27.0564-3.265-55.1194 9.042-74.8614 12.677 17.405 60.779 59.15 111.264 114.0094 140.264-.674-27.133 15.46-57.264 12.888-96.297z"/><path d="m483.882 288.92c-26.482 9.531-62.708 17.44-85.899 14.074-34.048-4.942-75.453 5.979-76.593 32.961s.787 42.607 27.769 57.601c14.383 7.992 26.092 30.807 31.734 55.793 54.618-35.359 93.31-93.202 102.989-160.429z"/></g><path d="m362.541 460.055c-218.019-41.052-280.1214-253.911-243.458-389.681-56.7974 41.964-93.6374 109.389-93.6374 185.427 0 127.25 103.1574 230.407 230.4084 230.407 38.5 0 74.787-9.457 106.687-26.153z" fill="#5a8bd5" opacity=".5"/><path d="m119.083 70.3779c-43.6453 32.2461-75.5013 79.5261-87.9133 134.2001 17.259-17.139 24.728-20.484 35.62-15.91 13.572 5.698 16.525 24.943 47.4423 17.61-8.245-47.759-6.118-95.279 4.851-135.9001z" fill="#6fcd90"/><path d="m161.226 363.322c-1.12-16.997-14.776-52.147-52.036-56.644-27.0564-3.265-55.1194 9.042-74.8614 12.677 17.405 60.779 59.15 111.264 114.0094 140.264-.674-27.133 15.46-57.264 12.888-96.297z" fill="#6fcd90"/><path d="m341.942 247.482 8.854-19.79c.465-1.041 1.943-1.041 2.408 0l8.854 19.79c3.261 7.289-2.073 15.518-10.058 15.518s-13.319-8.229-10.058-15.518z" fill="#8de1ce"/><path clip-rule="evenodd" d="m255.688 253.25c-7.764 0-16.655 4.103-26.28 14.644-2.979 3.263-8.039 3.493-11.302.514s-3.493-8.039-.514-11.302c11.375-12.459 24.234-19.856 38.096-19.856 13.887 0 26.639 7.423 37.784 19.927 2.94 3.298 2.649 8.355-.649 11.295s-8.355 2.649-11.295-.649c-9.355-10.496-18.102-14.573-25.84-14.573z" fill="#000" fill-rule="evenodd"/><path clip-rule="evenodd" d="m191.38 215.508c-6.045 8.908-20.312 8.816-26.921-.228-2.607-3.567-7.612-4.346-11.179-1.739s-4.346 7.612-1.739 11.179c12.391 16.956 40.124 18.863 53.079-.228 2.481-3.656 1.528-8.631-2.128-11.112s-8.631-1.528-11.112 2.128z" fill="#000" fill-rule="evenodd"/><path clip-rule="evenodd" d="m347.38 215.508c-6.045 8.908-20.312 8.816-26.921-.228-2.607-3.567-7.612-4.346-11.179-1.739s-4.346 7.612-1.739 11.179c12.391 16.956 40.124 18.863 53.079-.228 2.481-3.656 1.528-8.631-2.128-11.112s-8.631-1.528-11.112 2.128z" fill="#000" fill-rule="evenodd"/></svg>