<svg fill="none" height="512" viewBox="0 0 512 512" width="512" xmlns="http://www.w3.org/2000/svg"><path d="m75.913 151.826c41.926 0 75.913-33.987 75.913-75.913 0-41.9256-33.987-75.913-75.913-75.913-41.9256 0-75.913 33.9874-75.913 75.913 0 41.926 33.9874 75.913 75.913 75.913z" fill="#fbf1cf"/><path d="m.0279541 62.694c5.2789959-30.048 28.2160459-53.99401 57.7260459-60.75601 1.665 4.827 2.581 10.00201 2.581 15.39501 0 26.076-21.139 47.214-47.215 47.214-4.54403.001-8.93305-.654-13.0920459-1.853z" fill="#f5e2a2"/><path d="m102.037 146.759c-8.4649 3.261-17.6529 5.066-27.2679 5.066-24.068 0-45.504-11.213-59.412-28.686 8.432-12.879 22.978-21.393 39.521-21.393 25.338 0 46.0089 19.96 47.1589 45.013z" fill="#f5e2a2"/><path d="m129.471 23.3069c12.897 13.408 20.908 31.535 21.184 51.542-5.186 4.553-11.979 7.319-19.422 7.319-16.27 0-29.459-13.189-29.459-29.459.001-15.677 12.249-28.489 27.697-29.402z" fill="#f5e2a2"/><path d="m255.797 486.17c127.231 0 230.373-103.142 230.373-230.373 0-127.232-103.142-230.3734-230.373-230.3734-127.232 0-230.3734 103.1414-230.3734 230.3734 0 127.231 103.1414 230.373 230.3734 230.373z" fill="#7ca1dc"/><g fill="#8de1ce"><path d="m31.1697 204.577c17.259-17.139 24.728-20.484 35.62-15.91 14.133 5.934 16.732 26.577 51.4093 16.577 34.676-10 33.252-51.195 21.185-72.016-12.354-21.318-4.212-43.876-6.512-72.289-50.6983 32.064-88.0173 83.358-101.7023 143.638z"/><path d="m478.906 197.842c-14.495-55.939-49.482-103.617-96.466-134.572-8.651 17.535-21.189 32.815-50.972 30.956-15.816-.987-48.824 9.494-48.824 31.807s10.921 53.149 47.539 49.295 51.868-21.842 70.024-5.139c17.33 15.943 29.034 46.809 78.699 27.653z"/><path d="m161.226 363.322c-1.12-16.997-14.776-52.147-52.036-56.644-27.0564-3.265-55.1194 9.042-74.8614 12.677 17.405 60.779 59.15 111.264 114.0094 140.264-.674-27.133 15.46-57.264 12.888-96.297z"/><path d="m483.882 288.92c-26.482 9.531-62.708 17.44-85.899 14.074-34.048-4.942-75.453 5.979-76.593 32.961s.787 42.607 27.769 57.601c14.383 7.992 26.092 30.807 31.734 55.793 54.618-35.359 93.31-93.202 102.989-160.429z"/></g><path d="m362.541 460.055c-218.019-41.052-280.1214-253.911-243.458-389.681-56.7974 41.964-93.6374 109.389-93.6374 185.427 0 127.25 103.1574 230.407 230.4084 230.407 38.5 0 74.787-9.457 106.687-26.153z" fill="#5a8bd5" opacity=".5"/><path d="m119.083 70.3779c-43.6453 32.2461-75.5013 79.5261-87.9133 134.2001 17.259-17.139 24.728-20.484 35.62-15.91 13.572 5.698 16.525 24.943 47.4423 17.61-8.245-47.759-6.118-95.279 4.851-135.9001z" fill="#6fcd90"/><path d="m161.226 363.322c-1.12-16.997-14.776-52.147-52.036-56.644-27.0564-3.265-55.1194 9.042-74.8614 12.677 17.405 60.779 59.15 111.264 114.0094 140.264-.674-27.133 15.46-57.264 12.888-96.297z" fill="#6fcd90"/><path clip-rule="evenodd" d="m342.5 206c4.418 0 8 3.582 8 8v14.5c0 4.418-3.582 8-8 8s-8-3.582-8-8v-14.5c0-4.418 3.582-8 8-8z" fill="#000" fill-rule="evenodd"/><path clip-rule="evenodd" d="m169 206c4.418 0 8 3.582 8 8v14.5c0 4.418-3.582 8-8 8s-8-3.582-8-8v-14.5c0-4.418 3.582-8 8-8z" fill="#000" fill-rule="evenodd"/><path d="m229.97 233.277.206-1.054c.527-2.699 2.126-5.069 4.432-6.568 4.172-2.712 9.04-4.155 14.016-4.155h14.752c4.976 0 9.845 1.443 14.017 4.155 2.305 1.499 3.904 3.869 4.431 6.568l.206 1.054c1.879 9.63-.688 19.593-6.986 27.115l-.983 1.174c-4.475 5.345-11.089 8.434-18.061 8.434s-13.586-3.089-18.061-8.434l-.982-1.174c-6.299-7.522-8.866-17.485-6.987-27.115z" fill="#000"/><path d="m199 258.5c0 14.636-15.894 26.5-35.5 26.5s-35.5-11.864-35.5-26.5 15.894-26.5 35.5-26.5 35.5 11.864 35.5 26.5z" fill="#bdd7ff"/><path d="m384 258.5c0 14.636-15.894 26.5-35.5 26.5s-35.5-11.864-35.5-26.5 15.894-26.5 35.5-26.5 35.5 11.864 35.5 26.5z" fill="#bdd7ff"/></svg>