<svg fill="none" height="70" viewBox="0 0 71 70" width="71" xmlns="http://www.w3.org/2000/svg" xmlns:xlink="http://www.w3.org/1999/xlink"><filter id="a" color-interpolation-filters="sRGB" filterUnits="userSpaceOnUse" height="119.121" width="133.122" x="-30.0764" y="-6.9707"><feFlood flood-opacity="0" result="BackgroundImageFix"/><feColorMatrix in="SourceAlpha" type="matrix" values="0 0 0 0 0 0 0 0 0 0 0 0 0 0 0 0 0 0 127 0"/><feOffset dy="35"/><feGaussianBlur stdDeviation="25"/><feColorMatrix type="matrix" values="0 0 0 0 0.117778 0 0 0 0 0.159333 0 0 0 0 0.533333 0 0 0 0.5 0"/><feBlend in2="BackgroundImageFix" mode="normal" result="effect1_dropShadow"/><feBlend in="SourceGraphic" in2="effect1_dropShadow" mode="normal" result="shape"/></filter><clipPath id="b"><path d="m.5 16c0-8.83656 7.16344-16 16-16h38c8.8366 0 16 7.16344 16 16v38c0 8.8366-7.1634 16-16 16h-38c-8.83656 0-16-7.1634-16-16z"/></clipPath><clipPath id="c"><path d="m.5 0h70v70h-70z"/></clipPath><g clip-path="url(#b)"><g clip-path="url(#c)"><g clip-rule="evenodd" fill-rule="evenodd"><path d="m9.45996 20.125 25.93504 13.965v29.925l-25.93504-13.965z" fill="#6584f1"/><path d="m61.3299 20.125-25.9349 13.965v29.925l25.9349-13.965z" fill="#6584f1"/><path d="m61.3299 20.125-25.9349 13.965v29.925l25.9349-13.965z" fill="#000" opacity=".1"/><path d="m35.3951 6.16003 25.935 13.96497-25.935 13.965-25.93502-13.965z" fill="#6584f1"/><path d="m35.3951 6.16003 25.935 13.96497-25.935 13.965-25.93502-13.965z" fill="#fff" opacity=".2"/><path d="m30.5672 15.6563c.7037-.3842 1.4925-.5855 2.2942-.5855s1.5906.2013 2.2943.5855c.2134.1232.3903.3006.513.5144.1226.2137.1865.4561.1852.7025.0029.2518-.0623.4996-.1888.7174-.1264.2177-.3093.3972-.5294.5195l-2.8928 1.5362c-1.4164.7581-3.1321.7581-4.5485 0-.2179-.1164-.4011-.2886-.5308-.4988-.1297-.2103-.2012-.4513-.2074-.6982 0-.5187.2793-.9975.7382-1.2369z" fill="#fff" fill-opacity=".149"/><path d="m36.5518 19.3669c.7012-.3807 1.4863-.58 2.2842-.58.7978 0 1.5831.1993 2.2843.58.2142.119.3934.2922.5194.5023.1261.2101.1946.4497.1988.6947.0029.2517-.0624.4996-.1888.7174-.1264.2177-.3093.3972-.5294.5195l-2.8928 1.5361c-1.4364.7781-3.1321.7781-4.5685 0-.2142-.1189-.3934-.2922-.5194-.5023-.1261-.2101-.1946-.4497-.1988-.6947 0-.5187.2793-.9975.7182-1.2369zm-4.3491 8.1196c-.6987-.3771-1.4803-.5746-2.2743-.5746-.7941 0-1.5756.1975-2.2744.5746-.2166.118-.3986.2905-.5281.5005-.1294.2099-.2018.45-.21.6965 0 .5187.2992.9975.7381 1.2369l5.4463 2.9327c.7012.3806 1.4865.58 2.2844.58.7978 0 1.5831-.1994 2.2843-.58.2199-.1173.4033-.2929.53-.5076s.1918-.4601.1881-.7094c-.0006-.2484-.0676-.4921-.1938-.706-.1263-.2139-.3072-.3903-.5243-.5109zm-12.4688-6.7231c.2209.118.4058.2933.5357.5074.1298.2141.1998.4591.2025.7095 0 .5187-.2793.9975-.7382 1.217-.6987.3771-1.4803.5746-2.2743.5746s-1.5756-.1975-2.2743-.5746l-3.4314-1.8354c-.2125.1196-.4526.1815-.6965.1795-.2438-.002-.4829-.0678-.6934-.1909s-.38509-.2991-.50643-.5106c-.12135-.2115-.18521-.4511-.18521-.695 0-.2438.06386-.4834.18521-.6949.12134-.2115.29593-.3876.50643-.5106.2105-.1231.4496-.1889.6934-.1909.2439-.002.484.0599.6965.1795.7029-.3755 1.4874-.5719 2.2842-.5719.7969 0 1.5815.1964 2.2843.5719z" fill="#fff" opacity=".2"/><path d="m52.5124 19.9655c.7029-.3755 1.4875-.5719 2.2843-.5719.7969 0 1.5815.1964 2.2843.5719.4389.2593.7182.7182.7182 1.2169 0 .5187-.2793.9975-.7182 1.217l-19.4113 10.4538c-.7012.3806-1.4864.58-2.2843.58-.7978 0-1.5831-.1994-2.2843-.58-.2171-.1207-.3981-.2971-.5243-.511-.1263-.2139-.1932-.4576-.1939-.706 0-.4987.2993-.9775.7182-1.2169z" fill="#fff" opacity=".2"/><path d="m46.2682 12.1051 1.9151.9975-25.8751 13.9251-1.8952-.9975z" fill="#6a1657" fill-opacity=".427"/><path d="m17.4398 32.9329c0-1.8354-1.1571-3.97-2.5935-4.7281-1.4364-.7781-2.5934.0997-2.5934 1.9351v4.3292c0 1.8354 1.157 3.97 2.5934 4.7281 1.4364.7781 2.5935-.0997 2.5935-1.9351z" fill="#fff" fill-opacity=".141"/><path d="m35.3948 41.4716c0-1.8753-1.1971-4.0299-2.6335-4.808-1.4563-.798-2.6334.0998-2.6334 1.9751v6.1645c0 1.8554 1.1771 4.0299 2.6334 4.808 1.4564.798 2.6335-.0998 2.6335-1.995z" fill="#fff" fill-opacity=".247"/><path d="m23.4251 46.06 7.98 4.2893v5.6857l-7.98-4.2892zm-2.9326-1.596-3.0524-1.6359v5.586l3.0524 1.6359z" fill="#fff" opacity=".2"/><path d="m39.3849 41.9105c0-2.7531 1.7356-5.9252 3.8703-7.0623l10.2342-5.5062c2.1347-1.1571 3.8505.1596 3.8505 2.8927v9.975c0 2.7531-1.7158 5.9252-3.8505 7.0823l-10.2342 5.5062c-2.1347 1.1371-3.8703-.1596-3.8703-2.9127z" fill="#fff" opacity=".1"/><path d="m57.34 38.08-5.985 3.2119v7.98l5.985-3.2119z" fill="#fff" opacity=".2"/><path d="m43.3751 10.4493 7.98 4.2893-25.935 13.9649-7.98-4.2892z" fill="#fff"/><path d="m17.4401 24.4143 7.98 4.3092v29.905l-7.98-4.2893z" fill="#fff"/><path d="m17.4401 24.4143 7.98 4.3092v29.905l-7.98-4.2893z" fill="#000" opacity=".1"/><path d="m27.4151 10.4493-7.98 4.2893 25.935 13.9649 7.98-4.2892z" fill="#fff"/><path d="m53.3501 24.4143-7.98 4.3092v29.905l7.98-4.2893z" fill="#fff"/><path d="m53.3501 24.4143-7.98 4.3092v29.905l7.98-4.2893z" fill="#000" opacity=".1"/></g><g filter="url(#a)"><path d="m40.4823 26.8436 4.2324-7.855c.0606-.1127.0414-.2346-.0536-.339-.095-.1043-.2579-.1827-.4531-.2178l-7.3549-1.3206c-.4061-.073-.8379.058-.9642.2925l-4.2324 7.855c-.1994.3705.4998.7059 1.0938.5257l4.1394-1.2557 2.1753 2.3897c.3126.3431 1.2174.2959 1.4173-.0748z" fill="#f01313"/><path d="m37.314 17.3772-2.2878-4.2459c-.0606-.1127-.1964-.2067-.3771-.2616-.1809-.0549-.3921-.066-.5871-.0309l-13.6064 2.4434c-.6423.1153-.724.6377-.1296.8182l4.1395 1.2558-2.1752 2.3896c-.312.3429.2688.7468.9107.6315l13.6065-2.4434c.4061-.073.6328-.3222.5065-.5567z" fill="#f01313"/><path d="m40.4823 26.8436 4.2324-7.855c.0606-.1127.0414-.2346-.0536-.339-.095-.1043-.2579-.1827-.4531-.2178l-7.3549-1.3206c-.4061-.073-.8379.058-.9642.2925l-4.2324 7.855c-.1994.3705.4998.7059 1.0938.5257l4.1394-1.2557 2.1753 2.3897c.3126.3431 1.2174.2959 1.4173-.0748z" fill="#000" opacity=".2"/><path d="m37.314 17.3772-2.2878-4.2459c-.0606-.1127-.1964-.2067-.3771-.2616-.1809-.0549-.3921-.066-.5871-.0309l-13.6064 2.4434c-.6423.1153-.724.6377-.1296.8182l4.1395 1.2558-2.1752 2.3896c-.312.3429.2688.7468.9107.6315l13.6065-2.4434c.4061-.073.6328-.3222.5065-.5567z" fill="#000" opacity=".2"/><path d="m52.924 19.4516c-.3392-.768-1.328-1.36-2.6451-1.5837l-8.9093-1.5127c-.2704-.0459-.5626-.003-.7619.1121l-1.634.9433c-.2039.1177-.2768.2914-.189.4499l2.8172 5.0824c.1918.3462.5175.6512.9435.897.4901.283 1.113.4876 1.8171.5861 1.316.1842 2.6733-.0358 3.6307-.5885l3.9223-2.2644c.9707-.5605 1.3477-1.3535 1.0085-2.1215z" fill="#f01313"/><path d="m38.6226 14.7702-2.6204-5.14328c-.3873-.76035-1.4128-1.33118-2.7431-1.52706-1.3303-.19585-2.7041.0218-3.6749.58222l-3.9224 2.26442c-.9574.5527-1.3387 1.3362-1.0195 2.0959.1706.4065.525.7661 1.0152 1.0491.4259.2459.9543.4339 1.5538.5447l8.8036 1.6263c.2747.0507.5754.0086.7794-.1092l1.6339-.9432c.1994-.115.2739-.2838.1944-.4399z" fill="#f01313"/><path d="m35.4328 18.1967c1.6544.9551 4.3367.9551 5.9911 0 1.6544-.955 1.6544-2.5035 0-3.4586s-4.3367-.9551-5.9911 0-1.6544 2.5036 0 3.4586z" fill="#ffd75f"/><path d="m39.6322 18.137c1.6545-.9551 1.6544-2.5036 0-3.4586-.5106-.2948-1.1192-.4984-1.7653-.6111 1.2592-.0946 2.5776.1367 3.5449.6952 1.6545.9551 1.6544 2.5035 0 3.4586-1.1437.6603-2.7787.8638-4.2258.6111.8946-.0672 1.7592-.2986 2.4462-.6952z" fill="#000" opacity=".05"/></g></g></g></svg>