<svg fill="none" height="20" viewBox="0 0 20 20" width="20" xmlns="http://www.w3.org/2000/svg"><path d="m.265491 15.208c-.075818.3261.023992.6681.263292.9021.378406.3702.985297.3635 1.355227-.0149 1.60028-1.6359 4.32452-2.5269 8.19659-2.6273v2.8637c0 .2605.0926.5124.2613.7109.3926.4619 1.0854.5181 1.5472.1255l7.449-6.3316c.0451-.0384.0871-.0804.1254-.1255.3926-.4619.3365-1.15459-.1254-1.5472l-7.449-6.33159c-.1984-.16869-.4504-.26131-.7108-.26131-.6062 0-1.0977.49143-1.0977 1.09764v2.89105c-5.22396.25213-8.5436 3.18032-9.815109 8.64851zm10.565109-7.16631h.75v-3.50316l6.4253 5.46147-6.4253 5.4615v-3.5031h-.75c-3.70416 0-6.58631.6448-8.63185 1.9627 1.40784-3.95583 4.24685-5.87941 8.63185-5.87941z"/></svg>