<svg fill="none" height="20" viewBox="0 0 20 20" width="20" xmlns="http://www.w3.org/2000/svg"><path clip-rule="evenodd" d="m2 6c0-2.20914 1.79086-4 4-4h8c2.2091 0 4 1.79086 4 4v8c0 2.2091-1.7909 4-4 4h-8c-2.20914 0-4-1.7909-4-4zm2 0c0-1.10457.89543-2 2-2h8c1.1046 0 2 .89543 2 2v8c0 1.1046-.8954 2-2 2h-8c-1.10457 0-2-.8954-2-2zm10 4c0 2.2091-1.7909 4-4 4-2.20914 0-4-1.7909-4-4 0-2.20914 1.79086-4 4-4 2.2091 0 4 1.79086 4 4zm-2 0c0 1.1046-.8954 2-2 2-1.10457 0-2-.8954-2-2 0-1.10457.89543-2 2-2 1.1046 0 2 .89543 2 2z" fill-rule="evenodd"/></svg>