<svg fill="none" height="20" viewBox="0 0 21 20" width="21" xmlns="http://www.w3.org/2000/svg"><path clip-rule="evenodd" d="m12.9559 2h-4.91179c-4.48271 0-5.54411 1.0614-5.54411 5.54411v4.91179c0 4.4827 1.0614 5.5441 5.54411 5.5441h4.91179c4.4827 0 5.5441-1.0614 5.5441-5.5441v-4.91179c0-4.48271-1.0614-5.54411-5.5441-5.54411zm2.2922 5.08095c.3501 0 .4291.18067.3501.42908-.1234.56931-1.1477 2.0795-1.465 2.54727-.0603.0889-.0951.1401-.0932.1401-.1243.2032-.1694.2936 0 .5194.0612.0835.191.2109.3394.3565.1526.1498.3248.3188.4622.4791.4969.5645.8808 1.0388.9824 1.3662.0903.3275-.0677.4969-.4065.4969h-1.163c-.3082 0-.4671-.177-.8057-.5543-.1452-.1617-.3234-.3603-.5606-.5975-.6888-.6662-.9936-.7565-1.163-.7565-.2371 0-.3049.0565-.3049.3952v1.0501c0 .2823-.0903.4517-.8355.4517-1.23081 0-2.59707-.7453-3.55685-2.1341-1.4453-2.03248-1.8405-3.56812-1.8405-3.87299 0-.16937.05645-.32745.3952-.32745h1.17431c.29358 0 .40649.12421.51941.45166.57586 1.65984 1.53563 3.11648 1.93084 3.11648.14678 0 .21453-.0678.21453-.4404v-1.71631c-.02787-.48784-.1977-.70039-.32363-.858-.0781-.09775-.13932-.17438-.13932-.28243 0-.1355.11292-.271.29358-.271h1.82923c.2484 0 .3387.1355.3387.42908v2.31475c0 .24841.1017.33871.1807.33871.1468 0 .271-.0903.542-.3613.8356-.93719 1.434-2.38249 1.434-2.38249.079-.16938.2145-.32746.5081-.32746z" fill-rule="evenodd"/></svg>