<svg fill="none" height="70" viewBox="0 0 71 70" width="71" xmlns="http://www.w3.org/2000/svg" xmlns:xlink="http://www.w3.org/1999/xlink"><clipPath id="a"><path d="m17.5 8h36v54h-36z"/></clipPath><path d="m.5 16c0-8.83656 7.16344-16 16-16h38c8.8366 0 16 7.16344 16 16v38c0 8.8366-7.1634 16-16 16h-38c-8.83656 0-16-7.1634-16-16z" fill="#fff"/><g clip-path="url(#a)"><path d="m26.2317 13.7849c.7008-.267 2.4242-.662 4.8196.1688 2.6692-.2077 3.4905-.6231 5.8859-1.0385 2.3955-.4154 6.2282-.3462 9.1027 1.6615s5.6122 2.077 6.1597 7.9616-.4791 7.9615-1.0951 9.2769c-.6159 1.3154-7.9391 3.2538-9.2395 3.7385-1.3004.4846-6.5019 1.5923-7.8023 1.2461-1.3004-.3461-9.6502-1.8-10.8137-2.7s-4.5855-8.3077-4.3118-9.5538c.2738-1.2462 1.9848-7.0616 3.2852-8.1693s2.8169-2.1374 4.0093-2.5918z" fill="#fff"/><path d="m34.1653 8.31937c-.7633.01773-1.5675.27333-2.1467.77843-1.0298.89793-2.0582 1.8309-2.0226 3.0523.0356 1.2213.7088 1.9052.7088 1.9052s.4617.3578 0 .7169c-.4616.3593-5.9292 3.8804-5.6452 11.1364 0 0 .1422 1.8883-.0709 3.8999-.153 1.4451.3491 3.1972.6455 4.0741.0074.0084.1455.3688-.1671.1586-1.4822-.9369-2.6923-2.3452-3.7061-4.0944-.9301-1.7089-1.4606-3.6836-1.4606-5.7845 0-4.4625 2.3953-8.3494 5.9235-10.3502-4.8407 1.3502-8.4093 5.936-8.4093 11.382 0 .4164.0201.829.0608 1.2342.0394.9391.1418 2.4375.4024 3.0371.3906.898.3544 2.8365.3544 3.1598 0 .3232.1066 10.9545 6.3211 10.9187 0 0 2.9618.0744 2.9819-1.1472.0178-1.0776-.2862-1.1909-.5671-1.8155-.2662-.5925-.461-.6288-.3189-2.5323 0 0 .0072-.3854.1493-.3945s1.8739 5.2081 4.1111 7.9381c2.2371 2.7299 4.4747 3.0164 6.1792 3.0164 0 0 3.1948.0007 3.1948-1.6157 0-1.6165-1.4557-.9707-1.4557-6.1071 0-5.1367 2.4497-4.8831 2.7341-3.6261.2841 1.2573.5327 2.2622.0354 5.6388-.4972 3.3765.8532 3.7718 2.0961 3.7718s7.7771.2139 8.9133-18.68c0 0 .1412-3.0522-.853-5.6744 0 0 .4264 5.0289-2.6631 7.7229-3.0894 2.6941-4.8654 2.2995-4.8654 2.2995s-1.49-.1091-2.0935.6452c-.6037.7543-.4988 1.2939-1.7769.8989-1.2785-.3952-1.2838-.7174-2.4555-.5737-1.1717.1438-1.8773.2861-2.339-.6837-.4619-.9698-.9779-1.5949-1.9365-1.7745-.9589-.1796-5.1717-2.2069-5.0579-7.9228.1064-5.3162 2.4859-7.1493 2.4859-7.1493s.3916-.4305.7821-.2509c.3907.1796 1.0288.2164 1.7746-.466.7457-.6825 1.2428-1.2231 2.5922-1.6901 0 0 .9241-.1441.8885-1.0781-.0356-.9339-.7828-2.97938-1.7418-3.59-.4195-.26737-.9887-.39821-1.5822-.38423zm3.2225 25.70883c.2143-.008.5238.1356.8505.2613.4753.1826 1.5621.0964 1.9874.0665.4251-.0298.71.1527.3695.5607-.4692.5627-1.0306.542-1.7391.5915-.7085.0496-1.4683-.6529-1.4683-.6529-.0403-.0693-.3852-.441-.2253-.7043.0499-.0821.1278-.119.2253-.1228zm-3.6282-11.4606c.8207-1.0185 1.2783-1.1495 1.9884-1.1495.7103 0 1.6957.4607 1.9887 1.5806.3195 1.2212.4819 1.4084-.6692 2.7714-.8257.978-2.3138 3.1194-3.8052 1.7544-1.4914-1.3649-.9375-3.1764.4973-4.9569zm13.3383 1.9018c-.481-1.2205-.8788-1.4845-1.5562-1.6999-.6774-.2156-1.7539-.075-2.3656.9043-.667 1.0679-.898 1.1689-.2042 2.8185.4977 1.1834 1.3027 3.7062 3.1302 2.8568 1.8275-.8496 1.8364-2.7457.9958-4.8797zm-7.867 8.0164c.3798-.6018 1.2656-.8062 1.779-.8222.6719-.0209.6623-.6072.6623-.6072s.0475-.5984-2.3788-.837c-2.4235-.2384-2.4897.3942-2.4897.3942s-.1144.5748.5424.7184c.5005.1095 1.3297.4795 1.5992 1.1359.053.1592.2029.1624.2856.0179zm11.4443-14.7341c-.4078.1347-1.047.0987-1.7135-.6631-.6665-.7619-1.1016-1.3531-2.3916-1.9684 0 0-.9018-.2462-.7642-1.1704.1375-.9243 1.1028-2.8755 2.1226-3.375s2.7374-.1973 3.6626.8105c.925 1.0079 1.8461 2.0515 1.677 3.2612-.1689 1.2098-.9142 1.8125-.9142 1.8125l.013.0021c-.3549.467-1.6917 1.2906-1.6917 1.2906z" fill="#000"/><path d="m24.8812 44.5244c-.4241.0002-.8228.1674-1.1224.4709-.2997.3033-.4648.7067-.4645 1.1358.0001.4301.1655.8336.4655 1.1367.3001.3031.6988.47 1.1229.4699.8755-.0004 1.5873-.7213 1.5869-1.6067v-.0013c-.0002-.4289-.1655-.8321-.4656-1.1353-.3-.3033-.6988-.4703-1.1228-.47zm-.7344 2.3515c-.1966-.1988-.3048-.4629-.305-.7439-.0001-.2824.1079-.5464.3043-.7454.1963-.1988.4575-.3083.7354-.3085.2778-.0001.539.1091.7357.3078.1966.1987.3048.4629.305.7438v.0014c.0002.58-.4661 1.0523-1.0396 1.0528-.2781 0-.5392-.1093-.7358-.308zm1.0852-.5857.2724.0874c-.0417.1535-.1113.2678-.2083.3424-.0972.0746-.2204.1119-.3697.1119-.1848 0-.3368-.0638-.4557-.1917-.119-.1279-.1785-.3025-.1785-.5237 0-.2343.0598-.4163.1794-.5459.1197-.1296.2769-.1942.4719-.1942.1702 0 .3085.0508.4149.1527.0632.0602.1107.1468.1423.2593l-.2781.0672c-.0165-.073-.0508-.1306-.103-.1731-.0521-.0422-.1156-.0633-.1904-.0633-.103 0-.1868.0376-.251.1125s-.0964.1962-.0964.3638c0 .178.0316.3048.0949.3803.0632.0756.1455.1132.2468.1132.0746 0 .1389-.0241.1927-.0721.0538-.0481.0924-.1237.1158-.2267z" fill="#6d6d6d"/><path d="m51.0459 47.9966c-.424.0001-.8226.1674-1.1224.4708-.2998.3033-.4649.7068-.4646 1.1358.0003.8868.713 1.6068 1.5884 1.6064.4241 0 .8227-.1674 1.1224-.4708.2995-.3034.4648-.7067.4645-1.1358v-.0012c-.0002-.4291-.1655-.8323-.4656-1.1354-.2999-.3032-.6986-.47-1.1227-.4698zm-.7343 2.3518c-.1966-.1989-.3051-.4629-.3051-.744-.0003-.5814.4659-1.0536 1.0396-1.0538.2778-.0003.539.1092.7356.3078.1965.1985.3048.4627.305.7438v.0012c.0001.2811-.1079.5453-.3043.7441-.1965.199-.4576.3085-.7354.3085s-.5389-.1091-.7354-.3076zm.1906-.0413v-1.4077h.5914c.1486 0 .2568.0127.3241.0379.0672.0253.1214.0702.1619.135.0407.0648.0608.1386.0608.2219 0 .1057-.0309.1929-.0921.2617-.0613.0689-.1532.1125-.2754.1302.0608.0359.111.0752.1506.1181.0395.0429.0929.1191.16.2283l.1698.2746h-.336l-.2031-.3063c-.0722-.1095-.1216-.1785-.1481-.2068-.0265-.0287-.0548-.0482-.0845-.0588-.0297-.0105-.0769-.0156-.1414-.0156h-.0569v.5875zm.2807-.8122h.208c.1347 0 .219-.006.2527-.0173.0334-.0117.0598-.0315.0787-.0597.0192-.0283.0285-.0634.0285-.1057 0-.0473-.0125-.0857-.0374-.1147-.0252-.0291-.0602-.0475-.1058-.055-.0229-.0032-.0912-.0049-.2051-.0049h-.2192v.3573z" fill="#6d6d6d"/><path d="m18.9595 52.1916h1.8079s.4684-.0859.653.3949c.2172.5666 1.1118 4.1976 1.1118 4.1976l1.2817-1.9184s-.5228-2.6867.3936-2.6741c1.1048.0149 1.7201 0 1.7201 0s.4402-.0427.7156.6998c.3243.8742 1.1136 3.9518 1.1136 3.9518l1.8242-4.2058s.251-.4457.6529-.4457c.4268 0 .697.3027.6026.6491-.1438.5276-3.1638 8.5594-3.1638 8.5594s-.2009.4824-.6277.4824c-.427 0-.6027-.2539-.8287-.8381-.226-.5841-1.6572-4.4957-1.6572-4.4957l-2.1595 4.9529s-.1632.3808-.5022.3808c-.4018 0-.5525-.1776-.7533-.5587-.2009-.3809-2.7369-7.7214-2.7369-7.7214s-.5024-1.4108.5523-1.4108zm13.3519 0h1.8079s.4684-.0859.6529.3949c.2173.5666 1.1121 4.1976 1.1121 4.1976l1.2813-1.9184s-.5226-2.6867.3937-2.6741c1.1046.0149 1.7199 0 1.7199 0s.4404-.0427.7157.6998c.3244.8742 1.1136 3.9518 1.1136 3.9518l1.8241-4.2058s.2511-.4457.6529-.4457c.427 0 .6972.3027.6026.6491-.1436.5276-3.1638 8.5594-3.1638 8.5594s-.2008.4824-.6277.4824-.6024-.2539-.8287-.8381c-.226-.5841-1.6571-4.4957-1.6571-4.4957l-2.1594 4.9529s-.1632.3808-.5023.3808c-.4017 0-.5524-.1776-.7532-.5587-.201-.3809-2.737-7.7214-2.737-7.7214s-.5022-1.4108.5525-1.4108zm13.362 9.6909s-.6214.0533-.6214-.9346c0-.9877 0-8.1539 0-8.1539s0-.6106.8876-.6106h6.0723s.7357-.036.7357.6826-.6825.6466-.6825.6466h-3.622s-.4261 0-.4261.4129v2.0115h2.7876s.7534 0 .7534.5927c0 .5925-.6293.6286-.6293.6286h-2.9294v3.9208s.0431.8035-.4716.8035c-.3553-.0001-1.8543-.0187-1.8543-.0001z" fill="#000"/></g></svg>